#Comment line ignore any data following # character 
#Hierarchical Translation and Rotation (.htr) file 
[Header]	
#Header keywords are followed by a single value 
FileType HTR		#Single word string
DataType HTRS		#Translation followed by rotation and scale data
FileVersion 1		#integer
NumSegments 84		#integer
NumFrames 2		#integer
DataFrameRate 30		#integer, data frame rate in this file
EulerRotationOrder ZYX
CalibrationUnits mm
RotationUnits Degrees
GlobalAxisofGravity Y
BoneLengthAxis Y
ScaleFactor 1.00
[SegmentNames&Hierarchy]
#CHILD	PARENT
MASTER GLOBAL
root MASTER
chest root
L_mid_tent01 root
R_mid_tent01 root
spine01 root
Bip01_Neck chest
L_humerus chest
R_humerus chest
weapon_bone chest
Bip01_Head Bip01_Neck
eye_left_bone Bip01_Head
eye_right_bone Bip01_Head
L_forearm L_humerus
L_front_hand L_forearm
L_weapon_bone L_forearm
L_front_hand01_01 L_front_hand
L_front_hand02_01 L_front_hand
L_front_hand03_01 L_front_hand
L_front_hand01_02 L_front_hand01_01
L_front_hand02_02 L_front_hand02_01
L_front_hand03_02 L_front_hand03_01
R_forearm R_humerus
R_front_hand R_forearm
R_weapon_bone R_forearm
R_front_hand01_01 R_front_hand
R_front_hand02_01 R_front_hand
R_front_hand03_01 R_front_hand
R_front_hand01_02 R_front_hand01_01
R_front_hand02_02 R_front_hand02_01
R_front_hand03_02 R_front_hand03_01
null_rope01_connect L_mid_tent01
Rope1_Seg01 null_rope01_connect
Rope1_Seg02 Rope1_Seg01
Rope1_Seg03 Rope1_Seg02
Rope1_Seg04 Rope1_Seg03
Rope1_Seg05 Rope1_Seg04
Rope1_Seg06 Rope1_Seg05
Rope1_Seg07 Rope1_Seg06
Rope1_Seg09 Rope1_Seg07
L_mid_hand01 Rope1_Seg09
L_mid_hand02 Rope1_Seg09
L_mid_hand03 Rope1_Seg09
null_rope02_connect R_mid_tent01
Rope2_Seg01 null_rope02_connect
Rope2_Seg02 Rope2_Seg01
Rope2_Seg03 Rope2_Seg02
Rope2_Seg04 Rope2_Seg03
Rope2_Seg05 Rope2_Seg04
Rope2_Seg06 Rope2_Seg05
Rope2_Seg07 Rope2_Seg06
Rope2_Seg09 Rope2_Seg07
R_mid_hand01 Rope2_Seg09
R_mid_hand02 Rope2_Seg09
R_mid_hand03 Rope2_Seg09
spine02 spine01
spine03 spine02
pelvis spine03
null_rope03_connect pelvis
null_rope04_connect pelvis
Rope3_Seg01 null_rope03_connect
Rope3_Seg02 Rope3_Seg01
Rope3_Seg03 Rope3_Seg02
Rope3_Seg04 Rope3_Seg03
Rope3_Seg05 Rope3_Seg04
Rope3_Seg06 Rope3_Seg05
Rope3_Seg07 Rope3_Seg06
Rope3_Seg08 Rope3_Seg07
Rope3_Seg09 Rope3_Seg08
R_rear_hand01 Rope3_Seg09
R_rear_hand02 Rope3_Seg09
R_rear_hand03 Rope3_Seg09
Rope4_Seg01 null_rope04_connect
Rope4_Seg02 Rope4_Seg01
Rope4_Seg03 Rope4_Seg02
Rope4_Seg04 Rope4_Seg03
Rope4_Seg05 Rope4_Seg04
Rope4_Seg06 Rope4_Seg05
Rope4_Seg07 Rope4_Seg06
Rope4_Seg08 Rope4_Seg07
Rope4_Seg09 Rope4_Seg08
L_rear_hand01 Rope4_Seg09
L_rear_hand02 Rope4_Seg09
L_rear_hand03 Rope4_Seg09
[BasePosition]
#SegmentName Tx, Ty, Tz, Rx, Ry, Rz, BoneLength
MASTER 0.000000 0.000000 0.000000 -90.000000 0.000000 0.000000 10.000000 
root 0.000000 0.000000 0.000000 0.000000 0.000000 0.000000 10.000000 
chest 0.000000 0.000000 0.000000 0.000000 0.000000 0.000000 10.000000 
L_mid_tent01 0.000000 0.000000 0.000000 0.000000 0.000000 0.000000 10.000000 
R_mid_tent01 0.000000 0.000000 0.000000 0.000000 0.000000 0.000000 10.000000 
spine01 0.000000 0.000000 0.000000 0.000000 0.000000 0.000000 10.000000 
Bip01_Neck 0.000000 0.000000 0.000000 0.000000 0.000000 0.000000 10.000000 
L_humerus 0.000000 0.000000 0.000000 0.000000 0.000000 0.000000 10.000000 
R_humerus 0.000000 0.000000 0.000000 0.000000 0.000000 0.000000 10.000000 
weapon_bone 0.000000 0.000000 0.000000 0.000000 0.000000 0.000000 10.000000 
Bip01_Head 0.000000 0.000000 0.000000 0.000000 0.000000 0.000000 10.000000 
eye_left_bone 0.000000 0.000000 0.000000 0.000000 0.000000 0.000000 10.000000 
eye_right_bone 0.000000 0.000000 0.000000 0.000000 0.000000 0.000000 10.000000 
L_forearm 0.000000 0.000000 0.000000 0.000000 0.000000 0.000000 10.000000 
L_front_hand 0.000000 0.000000 0.000000 0.000000 0.000000 0.000000 10.000000 
L_weapon_bone 0.000000 0.000000 0.000000 0.000000 0.000000 0.000000 10.000000 
L_front_hand01_01 0.000000 0.000000 0.000000 0.000000 0.000000 0.000000 10.000000 
L_front_hand02_01 0.000000 0.000000 0.000000 0.000000 0.000000 0.000000 10.000000 
L_front_hand03_01 0.000000 0.000000 0.000000 0.000000 0.000000 0.000000 10.000000 
L_front_hand01_02 0.000000 0.000000 0.000000 0.000000 0.000000 0.000000 10.000000 
L_front_hand02_02 0.000000 0.000000 0.000000 0.000000 0.000000 0.000000 10.000000 
L_front_hand03_02 0.000000 0.000000 0.000000 0.000000 0.000000 0.000000 10.000000 
R_forearm 0.000000 0.000000 0.000000 0.000000 0.000000 0.000000 10.000000 
R_front_hand 0.000000 0.000000 0.000000 0.000000 0.000000 0.000000 10.000000 
R_weapon_bone 0.000000 0.000000 0.000000 0.000000 0.000000 0.000000 10.000000 
R_front_hand01_01 0.000000 0.000000 0.000000 0.000000 0.000000 0.000000 10.000000 
R_front_hand02_01 0.000000 0.000000 0.000000 0.000000 0.000000 0.000000 10.000000 
R_front_hand03_01 0.000000 0.000000 0.000000 0.000000 0.000000 0.000000 10.000000 
R_front_hand01_02 0.000000 0.000000 0.000000 0.000000 0.000000 0.000000 10.000000 
R_front_hand02_02 0.000000 0.000000 0.000000 0.000000 0.000000 0.000000 10.000000 
R_front_hand03_02 0.000000 0.000000 0.000000 0.000000 0.000000 0.000000 10.000000 
null_rope01_connect 0.000000 0.000000 0.000000 0.000000 0.000000 0.000000 10.000000 
Rope1_Seg01 0.000000 0.000000 0.000000 0.000000 0.000000 0.000000 10.000000 
Rope1_Seg02 0.000000 0.000000 0.000000 0.000000 0.000000 0.000000 10.000000 
Rope1_Seg03 0.000000 0.000000 0.000000 0.000000 0.000000 0.000000 10.000000 
Rope1_Seg04 0.000000 0.000000 0.000000 0.000000 0.000000 0.000000 10.000000 
Rope1_Seg05 0.000000 0.000000 0.000000 0.000000 0.000000 0.000000 10.000000 
Rope1_Seg06 0.000000 0.000000 0.000000 0.000000 0.000000 0.000000 10.000000 
Rope1_Seg07 0.000000 0.000000 0.000000 0.000000 0.000000 0.000000 10.000000 
Rope1_Seg09 0.000000 0.000000 0.000000 0.000000 0.000000 0.000000 10.000000 
L_mid_hand01 0.000000 0.000000 0.000000 0.000000 0.000000 0.000000 10.000000 
L_mid_hand02 0.000000 0.000000 0.000000 0.000000 0.000000 0.000000 10.000000 
L_mid_hand03 0.000000 0.000000 0.000000 0.000000 0.000000 0.000000 10.000000 
null_rope02_connect 0.000000 0.000000 0.000000 0.000000 0.000000 0.000000 10.000000 
Rope2_Seg01 0.000000 0.000000 0.000000 0.000000 0.000000 0.000000 10.000000 
Rope2_Seg02 0.000000 0.000000 0.000000 0.000000 0.000000 0.000000 10.000000 
Rope2_Seg03 0.000000 0.000000 0.000000 0.000000 0.000000 0.000000 10.000000 
Rope2_Seg04 0.000000 0.000000 0.000000 0.000000 0.000000 0.000000 10.000000 
Rope2_Seg05 0.000000 0.000000 0.000000 0.000000 0.000000 0.000000 10.000000 
Rope2_Seg06 0.000000 0.000000 0.000000 0.000000 0.000000 0.000000 10.000000 
Rope2_Seg07 0.000000 0.000000 0.000000 0.000000 0.000000 0.000000 10.000000 
Rope2_Seg09 0.000000 0.000000 0.000000 0.000000 0.000000 0.000000 10.000000 
R_mid_hand01 0.000000 0.000000 0.000000 0.000000 0.000000 0.000000 10.000000 
R_mid_hand02 0.000000 0.000000 0.000000 0.000000 0.000000 0.000000 10.000000 
R_mid_hand03 0.000000 0.000000 0.000000 0.000000 0.000000 0.000000 10.000000 
spine02 0.000000 0.000000 0.000000 0.000000 0.000000 0.000000 10.000000 
spine03 0.000000 0.000000 0.000000 0.000000 0.000000 0.000000 10.000000 
pelvis 0.000000 0.000000 0.000000 0.000000 0.000000 0.000000 10.000000 
null_rope03_connect 0.000000 0.000000 0.000000 0.000000 0.000000 0.000000 10.000000 
null_rope04_connect 0.000000 0.000000 0.000000 0.000000 0.000000 0.000000 10.000000 
Rope3_Seg01 0.000000 0.000000 0.000000 0.000000 0.000000 0.000000 10.000000 
Rope3_Seg02 0.000000 0.000000 0.000000 0.000000 0.000000 0.000000 10.000000 
Rope3_Seg03 0.000000 0.000000 0.000000 0.000000 0.000000 0.000000 10.000000 
Rope3_Seg04 0.000000 0.000000 0.000000 0.000000 0.000000 0.000000 10.000000 
Rope3_Seg05 0.000000 0.000000 0.000000 0.000000 0.000000 0.000000 10.000000 
Rope3_Seg06 0.000000 0.000000 0.000000 0.000000 0.000000 0.000000 10.000000 
Rope3_Seg07 0.000000 0.000000 0.000000 0.000000 0.000000 0.000000 10.000000 
Rope3_Seg08 0.000000 0.000000 0.000000 0.000000 0.000000 0.000000 10.000000 
Rope3_Seg09 0.000000 0.000000 0.000000 0.000000 0.000000 0.000000 10.000000 
R_rear_hand01 0.000000 0.000000 0.000000 0.000000 0.000000 0.000000 10.000000 
R_rear_hand02 0.000000 0.000000 0.000000 0.000000 0.000000 0.000000 10.000000 
R_rear_hand03 0.000000 0.000000 0.000000 0.000000 0.000000 0.000000 10.000000 
Rope4_Seg01 0.000000 0.000000 0.000000 0.000000 0.000000 0.000000 10.000000 
Rope4_Seg02 0.000000 0.000000 0.000000 0.000000 0.000000 0.000000 10.000000 
Rope4_Seg03 0.000000 0.000000 0.000000 0.000000 0.000000 0.000000 10.000000 
Rope4_Seg04 0.000000 0.000000 0.000000 0.000000 0.000000 0.000000 10.000000 
Rope4_Seg05 0.000000 0.000000 0.000000 0.000000 0.000000 0.000000 10.000000 
Rope4_Seg06 0.000000 0.000000 0.000000 0.000000 0.000000 0.000000 10.000000 
Rope4_Seg07 0.000000 0.000000 0.000000 0.000000 0.000000 0.000000 10.000000 
Rope4_Seg08 0.000000 0.000000 0.000000 0.000000 0.000000 0.000000 10.000000 
Rope4_Seg09 0.000000 0.000000 0.000000 0.000000 0.000000 0.000000 10.000000 
L_rear_hand01 0.000000 0.000000 0.000000 0.000000 0.000000 0.000000 10.000000 
L_rear_hand02 0.000000 0.000000 0.000000 0.000000 0.000000 0.000000 10.000000 
L_rear_hand03 0.000000 0.000000 0.000000 0.000000 0.000000 0.000000 10.000000 
#Beginning of Data. Separated by tabs
#Fr	Tx	Ty	Tz	Rx	Ry	Rz	SF
[MASTER]
133 -40.569271 4507.510254 0.000000 0.001660 0.001660 0.001660 4507.692871
134 -35.961914 4521.335938 0.000000 0.001660 0.001660 0.001660 4521.479004
[root]
133 1213.997559 57.871399 1538.034180 -54.227886 -7.726950 -87.361908 1960.277588
134 1179.067627 72.933418 1551.711548 -56.622700 -6.732593 -86.103600 1950.212402
[chest]
133 -84.512650 -34.090519 0.000000 -2.164627 0.132512 171.891541 91.129311
134 -84.512650 -34.090519 0.000000 -2.164627 0.132512 171.891541 91.129311
[L_mid_tent01]
133 27.299944 22.177608 -249.917908 -12.632552 2.577001 46.116730 252.380844
134 27.299953 22.177616 -249.917908 -12.632549 2.577001 46.116722 252.380844
[R_mid_tent01]
133 23.228794 24.509907 226.238495 -157.246796 -56.898151 31.338152 228.744751
134 23.228794 24.509907 226.238495 -158.749329 -55.940662 32.705070 228.744751
[spine01]
133 -0.361383 -0.195265 0.000000 0.001869 0.001420 15.534141 0.410763
134 -0.361383 -0.195265 0.000000 0.001869 0.001420 15.534141 0.410763
[Bip01_Neck]
133 165.484543 71.581718 0.000119 175.896118 1.177290 24.871183 180.302734
134 165.484543 71.581718 0.000119 175.896118 1.177290 24.871183 180.302734
[L_humerus]
133 -13.983130 -135.272980 -120.471481 175.500610 55.921959 -64.828316 181.680161
134 -13.983130 -135.272980 -120.471481 175.500610 55.921959 -64.828316 181.680161
[R_humerus]
133 -13.983309 -135.273102 125.287651 -178.898193 -46.892124 -62.295071 184.909012
134 -13.983309 -135.273102 125.287651 -178.898193 -46.892124 -62.295071 184.909012
[weapon_bone]
133 235.964890 -300.705902 0.000000 0.000000 -89.951546 -128.212341 382.234833
134 235.964890 -300.705902 0.000000 0.000000 -89.951546 -128.212341 382.234833
[Bip01_Head]
133 186.019897 185.149933 15.270385 16.773914 15.041762 -50.341427 262.901306
134 186.019897 185.149948 15.270385 15.482149 14.188344 -50.370628 262.901306
[eye_left_bone]
133 -24.626970 125.451866 -64.772606 0.000000 -90.000000 -99.840431 143.318359
134 -24.626970 125.451866 -64.772606 0.000000 -90.000000 -99.840431 143.318359
[eye_right_bone]
133 -24.626970 125.451866 64.327362 0.000000 -89.960434 80.159386 143.117676
134 -24.626970 125.451866 64.327362 0.000000 -89.960434 80.159386 143.117676
[L_forearm]
133 322.776093 0.000000 -0.000119 0.000640 0.002258 -58.348751 322.776093
134 322.776093 0.000000 -0.000119 0.000640 0.002258 -58.348751 322.776093
[L_front_hand]
133 241.149185 -0.042021 -3.300071 -178.667953 -1.835447 -27.422350 241.171753
134 241.149185 -0.042021 -3.300071 -178.667953 -1.835447 -27.422350 241.171753
[L_weapon_bone]
133 156.183838 0.000000 0.000000 0.000014 0.000007 0.000001 156.183838
134 156.183838 0.000000 0.000000 0.000014 0.000007 0.000001 156.183838
[L_front_hand01_01]
133 86.095154 20.947098 -0.655860 -0.366594 -0.477154 75.385574 88.609184
134 86.095154 20.947098 -0.655860 -0.366594 -0.477154 75.385574 88.609184
[L_front_hand02_01]
133 86.935165 -11.437475 24.513514 154.403519 -59.888931 -61.371990 91.046425
134 86.935165 -11.437475 24.513514 154.403519 -59.888931 -61.371990 91.046425
[L_front_hand03_01]
133 86.637497 -14.123976 -20.424902 -153.913849 58.118122 -62.702866 90.126129
134 86.637497 -14.123976 -20.424902 -153.913849 58.118122 -62.702866 90.126129
[L_front_hand01_02]
133 71.020905 -0.000179 0.000030 0.000334 -0.002323 -106.379684 71.020905
134 71.020905 -0.000179 0.000030 0.000334 -0.002323 -106.379684 71.020905
[L_front_hand02_02]
133 71.020927 -0.000119 0.000060 0.000334 -0.002323 -106.379684 71.020927
134 71.020927 -0.000119 0.000060 0.000334 -0.002323 -106.379684 71.020927
[L_front_hand03_02]
133 71.020905 -0.000060 0.000060 0.000334 -0.002323 -106.379684 71.020905
134 71.020905 -0.000060 0.000060 0.000334 -0.002323 -106.379684 71.020905
[R_forearm]
133 322.776428 -0.000060 0.000030 0.178801 -0.113338 -58.530384 322.776428
134 322.776428 -0.000060 0.000030 0.178801 -0.113338 -58.530384 322.776428
[R_front_hand]
133 238.847015 -0.006795 2.210259 -1.531694 0.790216 -51.443054 238.857239
134 238.847015 -0.006795 2.210259 -1.531694 0.790216 -51.443054 238.857239
[R_weapon_bone]
133 155.664093 0.002503 -0.000030 0.003487 0.001180 -90.988930 155.664078
134 155.664093 0.002503 -0.000030 0.003487 0.001180 -90.988930 155.664078
[R_front_hand01_01]
133 87.624611 14.231146 22.918642 -154.633484 -59.950619 61.746037 91.683487
134 87.624611 14.231146 22.918642 -154.633499 -59.950619 61.746044 91.683487
[R_front_hand02_01]
133 89.356956 14.367283 -19.491137 154.602661 58.302849 63.744389 92.579636
134 89.356956 14.367283 -19.491137 154.602661 58.302849 63.744389 92.579636
[R_front_hand03_01]
133 87.286232 -22.307278 -0.143439 0.162155 -0.423168 -75.767921 90.091743
134 87.286232 -22.307278 -0.143439 0.162155 -0.423168 -75.767921 90.091743
[R_front_hand01_02]
133 71.020905 0.000060 0.000119 0.002323 -0.000334 106.381714 71.020905
134 71.020905 0.000060 0.000119 0.002323 -0.000334 106.381714 71.020905
[R_front_hand02_02]
133 71.020844 -0.000030 -0.000119 0.002323 -0.000334 106.381714 71.020836
134 71.020844 -0.000030 -0.000119 0.002323 -0.000334 106.381714 71.020836
[R_front_hand03_02]
133 71.020905 0.000000 0.000030 0.002323 -0.000334 106.381714 71.020905
134 71.020905 0.000000 0.000030 0.002323 -0.000334 106.381714 71.020905
[null_rope01_connect]
133 328.732483 0.000000 -0.000238 29.215799 -62.703453 23.863939 328.732483
134 328.732483 0.000000 -0.000238 32.503544 -64.301132 19.233810 328.732483
[Rope1_Seg01]
133 6.545908 0.638426 4.542201 102.322433 10.993098 -141.917282 7.993002
134 6.687001 0.664061 4.341904 109.896118 15.973716 -139.273499 8.000567
[Rope1_Seg02]
133 139.999863 -0.000179 0.000000 17.061785 6.175823 -12.660059 139.999863
134 139.999863 -0.000179 0.000000 24.534542 3.899016 -10.970506 139.999863
[Rope1_Seg03]
133 139.999924 0.000060 -0.000060 112.892021 2.930602 -19.317093 139.999924
134 139.999924 0.000060 -0.000060 95.822418 -1.479324 -16.507957 139.999924
[Rope1_Seg04]
133 139.999924 -0.000060 -0.000119 26.068464 -19.780275 2.133313 139.999924
134 139.999924 -0.000060 -0.000119 26.747717 -19.657520 1.432040 139.999924
[Rope1_Seg05]
133 139.999832 0.000119 -0.000060 -0.234465 -10.082052 10.557882 139.999832
134 139.999832 0.000119 -0.000060 2.381813 -12.585586 9.685065 139.999832
[Rope1_Seg06]
133 139.999954 0.000119 -0.000060 -4.749788 -6.036162 15.154879 139.999954
134 139.999954 0.000119 -0.000060 -3.524627 -6.476961 13.253707 139.999954
[Rope1_Seg07]
133 139.999985 0.000060 0.000000 -2.680879 -5.667654 13.722817 139.999985
134 139.999985 0.000060 0.000000 -2.733297 -4.818502 13.187224 139.999985
[Rope1_Seg09]
133 121.602913 0.000119 -0.000089 -89.793175 -1.359789 0.847147 121.602913
134 121.602913 0.000119 -0.000089 -89.793175 -1.359789 0.847147 121.602913
[L_mid_hand01]
133 103.859421 1.038730 8.195221 116.294914 -23.111713 -31.758034 104.187431
134 103.859421 1.038730 8.195221 116.294914 -23.111713 -31.758034 104.187431
[L_mid_hand02]
133 105.572853 -4.139662 -10.864139 -144.219833 17.447468 -35.360519 106.211075
134 105.572853 -4.139662 -10.864139 -144.219833 17.447468 -35.360519 106.211075
[L_mid_hand03]
133 104.641464 17.579376 -3.913581 -17.830780 17.153103 31.982925 106.179977
134 104.641464 17.579376 -3.913581 -17.830780 17.153103 31.982925 106.179977
[null_rope02_connect]
133 328.732849 0.000179 -0.000119 -145.033707 -2.619441 -30.075249 328.732849
134 328.732849 0.000179 -0.000119 -146.189911 0.045924 -27.563103 328.732849
[Rope2_Seg01]
133 0.000009 0.000555 0.000134 -22.131750 -25.370165 -1.224296 0.000571
134 0.000009 0.000558 0.000135 -10.653088 -21.852404 -15.683834 0.000575
[Rope2_Seg02]
133 139.999741 -0.000060 -0.000119 7.843536 3.676845 -14.182928 139.999756
134 139.999741 -0.000060 -0.000119 9.320567 0.584816 -10.605151 139.999756
[Rope2_Seg03]
133 140.000107 0.000030 0.000000 15.355394 0.004522 -18.048124 140.000107
134 140.000107 0.000030 0.000000 14.021868 -3.161556 -12.718946 140.000107
[Rope2_Seg04]
133 139.999802 0.000000 -0.000060 17.203764 -1.681687 -16.727732 139.999802
134 139.999802 0.000000 -0.000060 15.019280 -4.592526 -13.064986 139.999802
[Rope2_Seg05]
133 139.999985 -0.000060 0.000119 17.921179 3.152328 -16.376146 139.999985
134 139.999985 -0.000060 0.000119 15.140298 3.125395 -14.719724 139.999985
[Rope2_Seg06]
133 139.999893 -0.000030 -0.000119 16.089197 -2.116240 -11.008832 139.999893
134 139.999893 -0.000030 -0.000119 13.625354 -0.901582 -9.950710 139.999893
[Rope2_Seg07]
133 139.999893 0.000060 -0.000060 9.874007 -3.460242 -6.080615 139.999893
134 139.999893 0.000060 -0.000060 8.999140 -2.447795 -5.735838 139.999893
[Rope2_Seg09]
133 121.338966 0.000089 -0.000060 33.793236 -1.359788 -0.847141 121.338966
134 121.338966 0.000089 -0.000060 33.793236 -1.359788 -0.847141 121.338966
[R_mid_hand01]
133 104.680779 11.144459 -10.335981 -41.523792 25.424656 28.595957 105.778534
134 104.680779 11.144459 -10.335981 -41.523792 25.424656 28.595957 105.778534
[R_mid_hand02]
133 104.070427 2.443552 8.231699 72.847389 -32.746803 10.013901 104.424065
134 104.070427 2.443552 8.231699 72.847389 -32.746803 10.013901 104.424065
[R_mid_hand03]
133 106.028137 -11.221827 -5.996406 -167.901306 10.259192 -37.009720 106.788818
134 106.028137 -11.221827 -5.996406 -167.901306 10.259192 -37.009720 106.788818
[spine02]
133 129.756927 0.001550 0.000119 -0.245322 -4.052060 -4.355547 129.756927
134 129.756927 0.001550 0.000119 -0.245322 -4.052060 -4.355547 129.756927
[spine03]
133 78.614410 0.087280 -4.898831 0.369659 4.260734 -4.885720 78.766945
134 78.614418 0.087280 -4.898831 0.369659 4.260734 -4.885720 78.766953
[pelvis]
133 169.435242 0.051022 0.000000 -0.010007 -0.191417 -1.897554 169.435257
134 169.435242 0.051022 0.000000 -0.010007 -0.191417 -1.897554 169.435257
[null_rope03_connect]
133 -1.257226 -2.466202 137.391083 11.153871 -53.345314 81.305573 137.418976
134 -1.257226 -2.466202 137.391083 12.293744 -55.531467 78.851082 137.418976
[null_rope04_connect]
133 -1.259640 -2.480268 -137.844437 11.153871 -53.345314 81.305573 137.872513
134 -1.259640 -2.480268 -137.844437 12.293744 -55.531467 78.851082 137.872513
[Rope3_Seg01]
133 -0.000001 0.000537 -0.000269 -152.069229 42.152416 -104.038170 0.000601
134 -0.000001 0.000541 -0.000271 -150.906067 38.905926 -105.147720 0.000605
[Rope3_Seg02]
133 139.999924 -0.000119 0.000060 1.888994 1.233697 -4.465744 139.999924
134 139.999924 -0.000119 0.000060 1.824916 0.822440 -4.596558 139.999924
[Rope3_Seg03]
133 139.999924 -0.000119 0.000119 2.410278 1.773388 -7.387268 139.999924
134 139.999924 -0.000119 0.000119 2.265923 1.081145 -7.447069 139.999924
[Rope3_Seg04]
133 139.999924 0.000119 0.000000 2.573358 2.752830 -14.299581 139.999924
134 139.999924 0.000119 0.000000 2.384432 1.427682 -13.854603 139.999924
[Rope3_Seg05]
133 139.999924 -0.000238 0.000060 -2.712816 5.181327 -36.185661 139.999924
134 139.999924 -0.000238 0.000060 -1.476205 2.251244 -33.921993 139.999924
[Rope3_Seg06]
133 139.999893 -0.000119 -0.000060 -10.399922 4.019659 -27.096617 139.999893
134 139.999893 -0.000119 -0.000060 -8.798786 1.712145 -26.506020 139.999893
[Rope3_Seg07]
133 139.999771 0.000060 -0.000119 -4.016427 1.236199 -7.931737 139.999771
134 139.999771 0.000060 -0.000119 -2.966980 0.246257 -7.009649 139.999771
[Rope3_Seg08]
133 139.999985 -0.000060 0.000000 -6.240052 2.272820 -8.437423 139.999985
134 139.999985 -0.000060 0.000000 -4.898551 1.052365 -7.672680 139.999985
[Rope3_Seg09]
133 90.185997 -0.000179 -0.000060 89.793228 -1.359877 -0.847183 90.185997
134 90.185997 -0.000179 -0.000060 89.793228 -1.359877 -0.847183 90.185997
[R_rear_hand01]
133 103.366196 -6.073594 -10.757982 -158.627975 33.644127 -23.327253 104.101845
134 103.366196 -6.073594 -10.757982 -158.627975 33.644127 -23.327253 104.101845
[R_rear_hand02]
133 100.509819 12.039542 -7.992327 -36.327797 26.496241 23.332451 101.543350
134 100.509819 12.039542 -7.992327 -36.327797 26.496241 23.332451 101.543350
[R_rear_hand03]
133 101.539970 5.215704 5.435467 73.054977 -27.152536 27.950705 101.819031
134 101.539970 5.215704 5.435467 73.054977 -27.152536 27.950705 101.819031
[Rope4_Seg01]
133 -0.000021 0.000005 0.000018 -6.322897 18.548140 -179.399017 0.000029
134 -0.000021 0.000004 0.000017 -6.854872 18.125294 -179.882202 0.000028
[Rope4_Seg02]
133 139.999985 0.000060 0.000119 14.738034 -13.548903 1.847278 139.999985
134 139.999985 0.000060 0.000119 15.308980 -13.483351 2.080874 139.999985
[Rope4_Seg03]
133 139.999924 0.000000 -0.000238 53.203930 -21.641176 9.592086 139.999924
134 139.999924 0.000000 -0.000238 54.356716 -21.777834 10.422175 139.999924
[Rope4_Seg04]
133 139.999985 0.000000 0.000119 37.170891 -3.593182 25.934837 139.999985
134 139.999985 0.000000 0.000119 35.819565 -2.502859 26.879068 139.999985
[Rope4_Seg05]
133 139.999802 -0.000060 -0.000119 10.740378 6.522172 15.564337 139.999802
134 139.999802 -0.000060 -0.000119 9.972877 6.956518 15.477272 139.999802
[Rope4_Seg06]
133 139.999924 0.000000 0.000060 10.407549 10.010136 24.419920 139.999924
134 139.999924 0.000000 0.000060 9.758646 10.585504 24.568905 139.999924
[Rope4_Seg07]
133 139.999802 0.000000 0.000000 4.609309 14.676033 25.662630 139.999802
134 139.999802 0.000000 0.000000 4.078408 15.236712 26.445444 139.999802
[Rope4_Seg08]
133 139.999924 0.000000 0.000119 -2.414641 7.292289 10.878830 139.999924
134 139.999924 0.000000 0.000119 -2.887344 7.295880 11.123625 139.999924
[Rope4_Seg09]
133 90.185791 0.000060 0.000060 -135.617828 2.228885 0.850567 90.185791
134 90.185791 0.000060 0.000060 -135.617828 2.228885 0.850567 90.185791
[L_rear_hand01]
133 101.696655 -8.392275 -7.654577 -33.685818 -15.212530 149.017090 102.329041
134 101.696655 -8.392275 -7.654577 -33.685818 -15.212530 149.017090 102.329041
[L_rear_hand02]
133 102.726799 -1.568258 5.773216 83.407906 30.330435 172.796509 102.900848
134 102.726799 -1.568258 5.773216 83.407906 30.330435 172.796509 102.900848
[L_rear_hand03]
133 104.552910 9.721220 -10.420293 -160.801239 -15.606593 -150.211823 105.519653
134 104.552910 9.721220 -10.420293 -160.801239 -15.606593 -150.211823 105.519653
